<?xml version="1.0"?>
<svg id="add" width="80" height="80" xmlns="http://www.w3.org/2000/svg" viewBox="0 0 455.431 455.431">
    <path d="M 405.5 412.8 c -69.7 56.9 -287.3 56.9 -355.6 0 c -69.7 -56.9 -62.6 -300.1 0 -364.1 s 293 -64 355.6 0 S 475.2 355.9 405.5 412.8 z"/>
    <path d="M 362.8 227.9 c 0 14.2 -11.4 25.6 -25.6 25.6 h -85.3 v 85.3 c 0 14.2 -11.4 25.6 -25.6 25.6 c -14.2 0 -25.6 -11.4 -25.6 -25.6 v -85.3 H 115.4 c -14.2 0 -25.6 -11.4 -25.6 -25.6 c 0 -14.2 11.4 -25.6 25.6 -25.6 h 85.3 v -85.3 c 0 -14.2 11.4 -25.6 25.6 -25.6 c 14.2 0 25.6 11.4 25.6 25.6 v 85.3 h 85.3 C 351.4 202.3 362.8 213.7 362.8 227.9 z" style="fill:#fff"/>
</svg>
